<svg id="eYAKnHZEiTc1" xmlns="http://www.w3.org/2000/svg" xmlns:xlink="http://www.w3.org/1999/xlink" viewBox="0 0 300 300" shape-rendering="geometricPrecision" text-rendering="geometricPrecision"><g transform="matrix(.416351 0 0 0.358536 87.54735 49.38078)"><rect width="66.145092" height="101.920341" rx="0" ry="0" transform="matrix(1 0 0 1.615496 30.39366 115.987209)" fill="#f96f5d" stroke-width="0"/><rect width="77.880512" height="242.745377" rx="0" ry="0" transform="translate(200.320057 37.893735)" fill="#6fcf97" stroke-width="0"/><line x1="-150" y1="0" x2="150" y2="0" transform="translate(150 280.639112)" fill="none" stroke="#bebec6" stroke-width="3"/><g><ellipse rx="28.46673" ry="27.617651" transform="matrix(.193208 0 0 0.199148 63.466206 96.570835)" fill="#2a4f96" stroke-width="0"/><line x1="-87.748933" y1="45.341395" x2="87.748934" y2="-45.341395" transform="translate(151.51138 51.22944)" fill="none" stroke="#2a4f96" stroke-width="3"/><ellipse rx="5.5" ry="5.5" transform="translate(239.260313 5.5)" fill="#2a4f96" stroke-width="0"/></g></g><g transform="translate(1.745003 5.225337)"><g transform="matrix(.991159 0.132679-.132679 0.991159 25.510424-21.600773)"><rect width="58" height="16" rx="0" ry="0" transform="matrix(.797023 0.603948-.603948 0.797023 155.149076 159.973469)" fill="#2a4f96" stroke-width="0"/><rect width="45.478639" height="14" rx="0" ry="0" transform="matrix(-.77023 1.016463-.797023-.603948 201.816599 195.907789)" fill="#2a4f96" stroke-width="0"/></g><rect width="58.28261" height="16.077961" rx="0" ry="0" transform="matrix(1.590206 0 0 1 92.192334 190.357104)" fill="#2a4f96" stroke-width="0"/></g></svg>
